<svg id="Layer_1" data-name="Layer 1" xmlns="http://www.w3.org/2000/svg" viewBox="0 0 221.6 187.11"><defs><style>.cls-1{fill:#161616;stroke:#171717;}.cls-1,.cls-10,.cls-11,.cls-12,.cls-2,.cls-3,.cls-4,.cls-5,.cls-6,.cls-7,.cls-8,.cls-9{stroke-miterlimit:10;}.cls-1,.cls-10,.cls-11,.cls-2,.cls-3,.cls-4,.cls-5,.cls-6,.cls-7,.cls-8,.cls-9{stroke-width:0.25px;}.cls-2{fill:#aaa8a9;stroke:#aba9aa;}.cls-3{fill:#c0bebd;}.cls-3,.cls-4,.cls-5{stroke:#c0bebd;}.cls-4{fill:#c1bebd;}.cls-5{fill:#c2c0bf;}.cls-6{fill:#323131;stroke:#323131;}.cls-7{fill:#605e5e;stroke:#605e5f;}.cls-8{fill:#848484;stroke:#848484;}.cls-9{fill:#838080;stroke:#838080;}.cls-10{fill:#6f6e6e;stroke:#6f6e6e;}.cls-11{fill:#a3a1a0;stroke:#a3a1a0;}.cls-12{fill:#58ba56;stroke:#231f20;stroke-width:5px;}</style></defs><path class="cls-1" d="M166.4,247.88a62.22,62.22,0,0,1-18.32,2.32l-17.8-.76,8.47-.65c3.72,0,7.55.63,11.14,0a125.58,125.58,0,0,0,16.76-4.59A83.1,83.1,0,0,0,177,239.38c3-1.52,6.33-2.78,9-4.86a166.38,166.38,0,0,0,14.14-12.68c2.66-2.65,4.74-5.91,7-9,3-4.17,6.17-8.19,7.71-13.3,1.64-5.43,4.06-10.63,5.78-16,1.36-4.27,2.17-8.72,3.26-13.08,1-3.78,2.05-7.54,2.93-11.34a28.66,28.66,0,0,0,.78-5.9c0-2.89-.47-5.82-.24-8.69.35-4.47-1.1-8.56-2.3-12.66q-.45-1.51-1-3l3.35-4.13a86.53,86.53,0,0,1,5,15.59A90.12,90.12,0,0,1,166.4,247.88Z" transform="translate(-35.74 -63.26)"/><path class="cls-2" d="M57,145.78c.29,3.88.43,7.78.69,11.67l-2.53,2.9c0-.21,0-.41,0-.61a10.53,10.53,0,0,1,.14-1.66,68,68,0,0,0,.67-8.21c0-.49-.58-1-.9-1.52l.66-3.88C56.14,144.9,57,145.31,57,145.78Z" transform="translate(-35.74 -63.26)"/><path class="cls-2" d="M194.7,186.43c-.82,4-2.61,7.81-1.51,12.06a20.66,20.66,0,0,1,.59,4.15c.09,2,.74,4.35-.14,5.76a53.86,53.86,0,0,1-7.73,9.52,73.1,73.1,0,0,1-10,8.22,29.09,29.09,0,0,1-8.59,4.21,28.09,28.09,0,0,0-9.63,4.51,20,20,0,0,1-3.69,2.37c-4.4,1.94-8.85,3.78-13.32,5.57a3.84,3.84,0,0,1-2.18,0c-3.93-.92-7.88-1.89-11.9-.71a9.84,9.84,0,0,1-8.35-1.2,4.27,4.27,0,0,0-3-.44c-2,.47-3.29-.2-4.81-1.34a99.32,99.32,0,0,0-9.26-6.24c-2.82-1.67-5.85-3-8.8-4.45-1.32-.65-2.68-1.2-4-1.83-1.67-.79-2.82-.37-3.47,1.37-3-3-6.2-5.72-8.88-8.94-3.06-3.66-5.64-7.73-8.42-11.62.86.36,1.72.73,2.59,1.08,2.39,1,4.74,2.06,7.19,2.82a2.78,2.78,0,0,0,2.27-1.06,2.39,2.39,0,0,0-.23-2.14,56.23,56.23,0,0,0-4.15-5.89c-1.42-1.72-2.85-3.68-4.72-4.72a15.76,15.76,0,0,1-1.89-1.22l-.49-.4a5.47,5.47,0,0,1-.51-.45c-.13-.12-.25-.24-.37-.37s-.24-.25-.35-.38a4,4,0,0,1-.33-.39c-.11-.13-.21-.27-.31-.41l-.24-.34c-.08-.12-.16-.25-.23-.38a3.72,3.72,0,0,1-.19-.34c-.12-.21-.22-.43-.32-.65,0,0,0,0,0,0s-.11-.26-.16-.39a3.62,3.62,0,0,1-.13-.35l8.88-10.18c.73.13,1.46.28,2.18.47a4.27,4.27,0,0,1,2.1,1.58A56.67,56.67,0,0,1,82,189.18a3.94,3.94,0,0,1,.32,2.85c-1,3.11-2.36,6.13-3.45,9.22a2.31,2.31,0,0,0,.38,2c2.81,2.84,5.72,5.58,8.64,8.31a1.61,1.61,0,0,0,1.25.43c3.52-1,7.2-1.5,9.53-5,1-1.53,2.81-2.58,4.31-3.77a1.26,1.26,0,0,1,1.22,0c3.3,2.89,6.54,5.82,9.79,8.75a10.29,10.29,0,0,0-3.15.11,4.85,4.85,0,0,0-2.72,1.93c-1.65,3.42-1.14,6.73,1,9.91,1,1.48,1.32,3.43,2.41,4.79a19.4,19.4,0,0,0,4.54,3.86,34.75,34.75,0,0,0,6.43,3.41c2,.78,4.48.64,6.42,1.56,2.57,1.23,4.82.64,7-.35a25.51,25.51,0,0,0,6-3.59c4.17-3.53,8.25-7.18,12.11-11s7.18-7.9,10.83-11.79c1.68-1.78,3.84-3.15,5.31-5.07,3.47-4.57,8.84-6.52,13.12-10a21,21,0,0,1,4-2.77,4.2,4.2,0,0,0,2.62-4.35c-.1-1.86-.59-3.7-.64-5.56a5.26,5.26,0,0,0-3.3-4.8,9.36,9.36,0,0,1-1.55-.95l5.51-6.77c1.82,4.27,3.23,8.72,4.71,13.13A5.66,5.66,0,0,1,194.7,186.43Z" transform="translate(-35.74 -63.26)"/><path class="cls-3" d="M55,148.35c.32.51.92,1,.9,1.52a68,68,0,0,1-.67,8.21,9.46,9.46,0,0,0-.14,1.66c0,.2,0,.4,0,.61l-1,1.12c0-1.74,0-3.49.08-5.24C54.37,153.6,54.76,151,55,148.35Z" transform="translate(-35.74 -63.26)"/><path class="cls-4" d="M157.63,166.9,140.2,145.09s0,0,0,0c.07-.25.15-.49.24-.73,0,0,0,0,0-.07a3.62,3.62,0,0,1,.13-.35,7.56,7.56,0,0,1,.3-.71c.93-2,3.06-2.06,4.66-.54,2,1.88,3.69,4.28,6,5.44a12.06,12.06,0,0,0,9,.78,35.31,35.31,0,0,1,6.73-1.13c.55-.06,1.68.65,1.71,1.06a9.13,9.13,0,0,0,.45,2.28,3.24,3.24,0,0,0,.19.52,1.27,1.27,0,0,0,.06.18Z" transform="translate(-35.74 -63.26)"/><path class="cls-4" d="M190,188.64a4.2,4.2,0,0,1-2.62,4.35,21,21,0,0,0-4,2.77c-4.28,3.43-9.65,5.38-13.12,10-1.47,1.92-3.63,3.29-5.31,5.07-3.65,3.89-7.06,8-10.83,11.79s-7.94,7.51-12.11,11a25.51,25.51,0,0,1-6,3.59c-2.21,1-4.46,1.58-7,.35-1.94-.92-4.38-.78-6.42-1.56a34.75,34.75,0,0,1-6.43-3.41,19.4,19.4,0,0,1-4.54-3.86c-1.09-1.36-1.43-3.31-2.41-4.79-2.11-3.18-2.62-6.49-1-9.91a4.85,4.85,0,0,1,2.72-1.93A10.29,10.29,0,0,1,114,212a37,37,0,0,0,16.35-2.66,6.44,6.44,0,0,0,3.51-8.48c-.39-1-.74-2-1.15-3-1-2.26-2-4.33.66-6.43.73-.58.23-2.71.29-4.12L133,184q-.25-1.35-.54-2.7l-.12-.57,24.42,30.65,27.73-34.06a9.36,9.36,0,0,0,1.55.95,5.26,5.26,0,0,1,3.3,4.8C189.42,184.94,189.91,186.78,190,188.64Z" transform="translate(-35.74 -63.26)"/><path class="cls-5" d="M114.29,158c-.18.07-.36.14-.54.19l-.08,0a4.05,4.05,0,0,1-.47.12l-.08,0a5.77,5.77,0,0,1-.58.08q-.3,0-.6,0a7.39,7.39,0,0,1-2.25-.36c-.25-.08-.5-.17-.74-.27h0a11.22,11.22,0,0,1-1.86-1c-.37-.25-.73-.52-1.09-.81a63.87,63.87,0,0,1-5.4-5.39l4.09-4.69Z" transform="translate(-35.74 -63.26)"/><path class="cls-4" d="M127.15,174.31a3.83,3.83,0,0,1-.25-.44l2.56,3.22a.44.44,0,0,1-.11-.09l-.27-.25a8.85,8.85,0,0,1-.79-.84,7.83,7.83,0,0,1-.58-.74c-.09-.12-.18-.25-.26-.38a.14.14,0,0,1,0-.08C127.31,174.58,127.23,174.45,127.15,174.31Z" transform="translate(-35.74 -63.26)"/><path class="cls-3" d="M79.65,210.27a2.78,2.78,0,0,1-2.27,1.06c-2.45-.76-4.8-1.84-7.19-2.82-.87-.35-1.73-.72-2.59-1.08-2.06-4-4.37-7.82-6.17-11.89L65,191.43a3.62,3.62,0,0,0,.13.35c0,.13.1.27.16.39s0,0,0,0c.1.22.2.44.32.65a3.72,3.72,0,0,0,.19.34c.07.13.15.26.23.38l.24.34c.1.14.2.28.31.41a4,4,0,0,0,.33.39c.11.13.23.26.35.38s.24.25.37.37a5.47,5.47,0,0,0,.51.45l.49.4a15.76,15.76,0,0,0,1.89,1.22c1.87,1,3.3,3,4.72,4.72a56.23,56.23,0,0,1,4.15,5.89A2.39,2.39,0,0,1,79.65,210.27Z" transform="translate(-35.74 -63.26)"/><path class="cls-6" d="M227.49,153.19a28.66,28.66,0,0,1-.78,5.9c-.88,3.8-2,7.56-2.93,11.34-1.09,4.36-1.9,8.81-3.26,13.08-1.72,5.41-4.14,10.61-5.78,16-1.54,5.11-4.71,9.13-7.71,13.3-2.22,3.08-4.3,6.34-7,9a166.38,166.38,0,0,1-14.14,12.68c-2.62,2.08-5.91,3.34-9,4.86a83.1,83.1,0,0,1-10.33,4.78,125.58,125.58,0,0,1-16.76,4.59c-3.59.67-7.42.07-11.14,0,2-.23,4-.55,6-.7a57.09,57.09,0,0,0,21.77-5.77c3.78-1.92,7.56-3.86,11.39-5.67a61.19,61.19,0,0,0,16-11.36c5.17-5,10.41-9.94,14-16.24,1.9-3.35,3.2-7,4.77-10.57.46-1,.85-2.08,1.4-3,2.82-5,1.61-10.21,1.25-15.46-.33-4.78-.15-9.59-.2-14.38a4.29,4.29,0,0,0,0-.71c-1-5.51,1.69-9.77,4.48-14.12,3-4.69,2.67-9.46.31-14.52-.24-.52-.48-1.05-.69-1.59l4.75-5.82q.51,1.49,1,3c1.2,4.1,2.65,8.19,2.3,12.66C227,147.37,227.54,150.3,227.49,153.19Z" transform="translate(-35.74 -63.26)"/><path class="cls-7" d="M208.88,102.94c-.13-.2-.28-.41-.42-.61l1.16-.31Z" transform="translate(-35.74 -63.26)"/><path class="cls-8" d="M133.89,200.84c-.39-1-.74-2-1.15-3-1-2.26-2-4.33.66-6.43.73-.58.23-2.71.29-4.12a10.9,10.9,0,0,1-1.72-1.67c-2.43-3.65-4.72-7.41-7.25-11a3.2,3.2,0,0,0-2.81-.94c-2.5.77-4.38,3.91-4.39,6.62,0,1.41,0,2.83-.07,4.23a1.72,1.72,0,0,1-.84,1.18c-.24.12-.88-.24-1.14-.55-2.5-3-5-6.06-7.42-9.15-2.75-3.5-5.24-7.23-9.53-9.14A4.4,4.4,0,0,1,97,165.48c-1.45-1.91-2.78-3.93-4.24-5.83L73.9,181.25c.73.13,1.46.28,2.18.47a4.27,4.27,0,0,1,2.1,1.58A56.67,56.67,0,0,1,82,189.18a3.94,3.94,0,0,1,.32,2.85c-1,3.11-2.36,6.13-3.45,9.22a2.31,2.31,0,0,0,.38,2c2.81,2.84,5.72,5.58,8.64,8.31a1.61,1.61,0,0,0,1.25.43c3.52-1,7.2-1.5,9.53-5,1-1.53,2.81-2.58,4.31-3.77a1.26,1.26,0,0,1,1.22,0c3.3,2.89,6.54,5.82,9.79,8.75a37,37,0,0,0,16.35-2.66A6.44,6.44,0,0,0,133.89,200.84ZM128,202c-1,3.15-6.58,6.76-9.68,6.49-2.44-.21-5.61-2.45-5-5.19l-.48-.33c.82-1.24,1.39-2.86,2.53-3.65a36.49,36.49,0,0,1,7-3.64c1.83-.76,3.57,0,4.91,1.41A4.65,4.65,0,0,1,128,202ZM139.49,90.75c-1.19-3.83-6.14-7.48-9.27-7-3.69.59-7.42,1-11.08,1.75-3.18.67-6.53,1.26-9.35,2.75-5.32,2.82-10.51,6-14.68,10.51-.43.46-1.34.47-2,.7a5.85,5.85,0,0,1-.16-2.17c1.62-4.79,3.29-9.5,7.73-12.67,1.18-.84,1.6-2.74,2.37-4.16a3.58,3.58,0,0,0-.66.19,88.79,88.79,0,0,0-30.11,25.66,87.73,87.73,0,0,0-16.56,38.14c.45.43,1.26.84,1.29,1.31.29,3.88.43,7.78.69,11.67l48.18-55.36L123.35,124a7.34,7.34,0,0,0,5.35-2.93c.54-.76,1.29-1.37,1.86-2.11a46.69,46.69,0,0,0,3.24-4.48c1.23-2.07,2.07-4.38,3.36-6.4A19.85,19.85,0,0,0,139.49,90.75Zm-5.6,110.09c-.39-1-.74-2-1.15-3-1-2.26-2-4.33.66-6.43.73-.58.23-2.71.29-4.12a10.9,10.9,0,0,1-1.72-1.67c-2.43-3.65-4.72-7.41-7.25-11a3.2,3.2,0,0,0-2.81-.94c-2.5.77-4.38,3.91-4.39,6.62,0,1.41,0,2.83-.07,4.23a1.72,1.72,0,0,1-.84,1.18c-.24.12-.88-.24-1.14-.55-2.5-3-5-6.06-7.42-9.15-2.75-3.5-5.24-7.23-9.53-9.14A4.4,4.4,0,0,1,97,165.48c-1.45-1.91-2.78-3.93-4.24-5.83L73.9,181.25c.73.13,1.46.28,2.18.47a4.27,4.27,0,0,1,2.1,1.58A56.67,56.67,0,0,1,82,189.18a3.94,3.94,0,0,1,.32,2.85c-1,3.11-2.36,6.13-3.45,9.22a2.31,2.31,0,0,0,.38,2c2.81,2.84,5.72,5.58,8.64,8.31a1.61,1.61,0,0,0,1.25.43c3.52-1,7.2-1.5,9.53-5,1-1.53,2.81-2.58,4.31-3.77a1.26,1.26,0,0,1,1.22,0c3.3,2.89,6.54,5.82,9.79,8.75a37,37,0,0,0,16.35-2.66A6.44,6.44,0,0,0,133.89,200.84ZM128,202c-1,3.15-6.58,6.76-9.68,6.49-2.44-.21-5.61-2.45-5-5.19l-.48-.33c.82-1.24,1.39-2.86,2.53-3.65a36.49,36.49,0,0,1,7-3.64c1.83-.76,3.57,0,4.91,1.41A4.65,4.65,0,0,1,128,202Z" transform="translate(-35.74 -63.26)"/><path class="cls-9" d="M218.63,140.67c-.2-1.45-.4-2.9-.61-4.35a.5.5,0,0,1,0-.12l-3.58,4.39,1.46,1.25a9.76,9.76,0,0,0,2.07,1C218.19,142.14,218.72,141.36,218.63,140.67Z" transform="translate(-35.74 -63.26)"/><path class="cls-9" d="M201.32,104.25l-4.64-17.39a91.3,91.3,0,0,0-31.21-14.09c-3.58-.83-7.2-1.44-10.81-2.15H144.41c.42.55.72,1.38,1.27,1.61,2.33,1,4.75,1.69,7.08,2.66,4,1.63,7.89,3.28,11.75,5.1,3.08,1.45,6,3.28,9.05,4.72,2.16,1,3.35,2.46,3.37,4.83,0,1.47-.09,2.95,0,4.41.18,2.07-1,3-2.75,3.12a23.82,23.82,0,0,1-4.92-.09,6,6,0,0,0-5.8,2.62c-1.5,1.69-3.1,3.3-4.48,5.08-2.43,3.15-4.77,6.26-4,10.78.72,4.29.8,8.68,1.2,13.49-1.85,0-3.54,0-5.22,0-2.88.08-6.18,3.75-5,6a54.41,54.41,0,0,0,6.1,8.23,3,3,0,0,0,2.57.41c4.69-1.28,9.35-2.67,14-4.11,2.67-.84,6.52,1.2,7.15,3.94.05.21.1.43.14.64l1.69-2.1a5,5,0,0,1,.06-.54,4.21,4.21,0,0,1,.11-.58l.12-.39a4.43,4.43,0,0,1,.15-.43,3.79,3.79,0,0,1,.18-.42l.22-.44c3.19-5.85,2.83-6.7-2.86-10.22-4.48-2.78-9.05-5.4-13.57-8.12a3,3,0,0,1-1.61-3.57,22,22,0,0,1,1.62-4.07c1.21-2.34,2.55-4.61,3.85-6.9,2.2-3.87,5-5.45,8.55-4.86a49.64,49.64,0,0,0,5.5,2.31c5.13,1.48,8,5.21,10.22,9.72a19.13,19.13,0,0,1,.56,2.2c.4,1.19.88,2.36,1.32,3.54.27.75.82,1.53.75,2.25a5.36,5.36,0,0,0,0,.89.07.07,0,0,0,0,0,1.23,1.23,0,0,0,0,.2l.06.36,3.2-4c-.14-.3-.28-.6-.4-.9s-.27-.61-.4-.91l-.36-.9c-.24-.61-.45-1.22-.63-1.85-.08-.28-.15-.56-.22-.85a.43.43,0,0,1,0-.11c0-.16-.07-.32-.1-.48-.06-.31-.11-.63-.15-1s0-.35-.05-.53a4.21,4.21,0,0,1,2.88-4.48,8.53,8.53,0,0,1,3.4-.6l.3,0a3.4,3.4,0,0,1,.46.06l.37.07h.06a.84.84,0,0,1,.26.07,4.87,4.87,0,0,1,.94.35l.32.16a3.38,3.38,0,0,1,.41.24,6.18,6.18,0,0,1,.53.36l.26.2a6.47,6.47,0,0,1,.56.5l4.38-5.46c-.13-.2-.28-.41-.42-.61Z" transform="translate(-35.74 -63.26)"/><path class="cls-9" d="M201.37,209.18a17.51,17.51,0,0,1-5.8,9.58c-3.25,2.8-6.22,5.91-9.32,8.88a3.62,3.62,0,0,1-.83.64l-21.29,10.23a8.93,8.93,0,0,0-2.07,1c-5,4.36-11.47,4.95-17.47,6.83-5.72,1.8-11.2,1-16.75-.18a9.8,9.8,0,0,0-6.31.48,3.85,3.85,0,0,0-.82.75,81,81,0,0,1-24-10.48c-4.12-2.68-7.9-5.9-11.83-8.88.65-1.74,1.8-2.16,3.47-1.37,1.33.63,2.69,1.18,4,1.83,3,1.45,6,2.78,8.8,4.45a99.32,99.32,0,0,1,9.26,6.24c1.52,1.14,2.86,1.81,4.81,1.34a4.27,4.27,0,0,1,3,.44,9.84,9.84,0,0,0,8.35,1.2c4-1.18,8-.21,11.9.71a3.84,3.84,0,0,0,2.18,0c4.47-1.79,8.92-3.63,13.32-5.57a20,20,0,0,0,3.69-2.37,28.09,28.09,0,0,1,9.63-4.51,29.09,29.09,0,0,0,8.59-4.21,73.1,73.1,0,0,0,10-8.22,53.86,53.86,0,0,0,7.73-9.52c.88-1.41.23-3.81.14-5.76a20.66,20.66,0,0,0-.59-4.15c-1.1-4.25.69-8.08,1.51-12.06a5.66,5.66,0,0,0,0-2.74c-1.48-4.41-2.89-8.86-4.71-13.13l2.81-3.46.06,0c.29.22.59.42.89.62l.53.34.57.37c.16.11.32.21.48.33a8.05,8.05,0,0,1,.95.78,8.34,8.34,0,0,1,2.47,3.62,60.2,60.2,0,0,1,1.62,13.35c.09,5.82,1.11,11.63,1.55,17.45A17.52,17.52,0,0,1,201.37,209.18Z" transform="translate(-35.74 -63.26)"/><path class="cls-7" d="M160.44,117.22a22,22,0,0,1,1.62-4.07c1.21-2.34,2.55-4.61,3.85-6.9,2.2-3.87,5-5.45,8.55-4.86a49.64,49.64,0,0,0,5.5,2.31c5.13,1.48,8,5.21,10.22,9.72a19.13,19.13,0,0,1,.56,2.2c.4,1.19.88,2.36,1.32,3.54.27.75.82,1.53.75,2.25a5.36,5.36,0,0,0,0,.89.07.07,0,0,0,0,0,1.23,1.23,0,0,0,0,.2l.06.36-15.24,19a5,5,0,0,1,.06-.54,4.21,4.21,0,0,1,.11-.58l.12-.39a4.43,4.43,0,0,1,.15-.43,3.79,3.79,0,0,1,.18-.42l.22-.44c3.19-5.85,2.83-6.7-2.86-10.22-4.48-2.78-9.05-5.4-13.57-8.12A3,3,0,0,1,160.44,117.22Z" transform="translate(-35.74 -63.26)"/><path class="cls-7" d="M219.62,150.77c-2.79,4.35-5.52,8.61-4.48,14.12a4.29,4.29,0,0,1,0,.71c.05,4.79-.13,9.6.2,14.38.36,5.25,1.57,10.48-1.25,15.46-.55,1-.94,2-1.4,3-1.57,3.53-2.87,7.22-4.77,10.57-3.58,6.3-8.82,11.27-14,16.24a61.19,61.19,0,0,1-16,11.36c-3.83,1.81-7.61,3.75-11.39,5.67a57.09,57.09,0,0,1-21.77,5.77c-2,.15-4,.47-6,.7l-8.47.65-9.57-2.09a3.85,3.85,0,0,1,.82-.75,9.8,9.8,0,0,1,6.31-.48c5.55,1.15,11,2,16.75.18,6-1.88,12.44-2.47,17.47-6.83a8.93,8.93,0,0,1,2.07-1l21.29-10.23a3.62,3.62,0,0,0,.83-.64c3.1-3,6.07-6.08,9.32-8.88A19.25,19.25,0,0,0,202,204c-.44-5.82-1.46-11.63-1.55-17.45a60.2,60.2,0,0,0-1.62-13.35,8.34,8.34,0,0,0-2.47-3.62,8.05,8.05,0,0,0-.95-.78c-.16-.12-.32-.22-.48-.33l-.57-.37-.53-.34c-.3-.2-.6-.4-.89-.62l-.06,0,21.58-26.51,1.46,1.25a9.76,9.76,0,0,0,2.07,1c.24-.73.77-1.51.68-2.2-.2-1.45-.4-2.9-.61-4.35a.5.5,0,0,1,0-.12l1.24-1.54c.21.54.45,1.07.69,1.59C222.29,141.31,222.62,146.08,219.62,150.77Z" transform="translate(-35.74 -63.26)"/><path class="cls-10" d="M112.8,203a6,6,0,0,1,2.53-3.65,36.49,36.49,0,0,1,7-3.64c1.83-.76,3.57,0,4.91,1.41A4.65,4.65,0,0,1,128,202c-1,3.15-6.58,6.76-9.68,6.49-2.44-.21-5.61-2.45-5-5.19Z" transform="translate(-35.74 -63.26)"/><path class="cls-11" d="M204.5,108.4l-8.42,10.52c-.14-.3-.28-.6-.4-.9s-.27-.61-.4-.91l-.36-.9c-.24-.61-.45-1.22-.63-1.85-.08-.28-.15-.56-.22-.85a.43.43,0,0,1,0-.11c0-.16-.07-.32-.1-.48-.06-.31-.11-.63-.15-1s0-.35-.05-.53a4.21,4.21,0,0,1,2.88-4.48,8.53,8.53,0,0,1,3.4-.6l.3,0a3.4,3.4,0,0,1,.46.06l.37.07h.06l.26.07a4.87,4.87,0,0,1,.94.35l.32.16a3.38,3.38,0,0,1,.41.24,6.18,6.18,0,0,1,.53.36l.26.2A6.47,6.47,0,0,1,204.5,108.4Z" transform="translate(-35.74 -63.26)"/><path class="cls-11" d="M133,184q-.25-1.35-.54-2.7l-.12-.57-2.89-3.62-.13-.12-.27-.25a8.85,8.85,0,0,1-.79-.84,7.83,7.83,0,0,1-.58-.74c-.09-.12-.18-.25-.26-.38a.14.14,0,0,1,0-.08c-.09-.13-.17-.26-.25-.4a3.83,3.83,0,0,1-.25-.44h0L114.29,158c-.18.07-.36.14-.54.19l-.08,0a4.05,4.05,0,0,1-.47.12l-.08,0a5.77,5.77,0,0,1-.58.08q-.3,0-.6,0a7.39,7.39,0,0,1-2.25-.36,6.06,6.06,0,0,1-.74-.27h0a11.22,11.22,0,0,1-1.86-1c-.37-.25-.73-.52-1.09-.81a63.87,63.87,0,0,1-5.4-5.39l-7.84,9c1.46,1.9,2.79,3.92,4.24,5.83a4.4,4.4,0,0,0,1.53,1.45c4.29,1.91,6.78,5.64,9.53,9.14,2.42,3.09,4.92,6.13,7.42,9.15.26.31.9.67,1.14.55a1.72,1.72,0,0,0,.84-1.18c.12-1.4.07-2.82.07-4.23,0-2.71,1.89-5.85,4.39-6.62a3.2,3.2,0,0,1,2.81.94c2.53,3.58,4.82,7.34,7.25,11a10.9,10.9,0,0,0,1.72,1.67Zm0,0q-.25-1.35-.54-2.7l-.12-.57-2.89-3.62-.13-.12-.27-.25a8.85,8.85,0,0,1-.79-.84,7.83,7.83,0,0,1-.58-.74c-.09-.12-.18-.25-.26-.38a.14.14,0,0,1,0-.08c-.09-.13-.17-.26-.25-.4a3.83,3.83,0,0,1-.25-.44h0L114.29,158c-.18.07-.36.14-.54.19l-.08,0a4.05,4.05,0,0,1-.47.12l-.08,0a5.77,5.77,0,0,1-.58.08q-.3,0-.6,0a7.39,7.39,0,0,1-2.25-.36,6.06,6.06,0,0,1-.74-.27h0a11.22,11.22,0,0,1-1.86-1c-.37-.25-.73-.52-1.09-.81a63.87,63.87,0,0,1-5.4-5.39l-7.84,9c1.46,1.9,2.79,3.92,4.24,5.83a4.4,4.4,0,0,0,1.53,1.45c4.29,1.91,6.78,5.64,9.53,9.14,2.42,3.09,4.92,6.13,7.42,9.15.26.31.9.67,1.14.55a1.72,1.72,0,0,0,.84-1.18c.12-1.4.07-2.82.07-4.23,0-2.71,1.89-5.85,4.39-6.62a3.2,3.2,0,0,1,2.81.94c2.53,3.58,4.82,7.34,7.25,11a10.9,10.9,0,0,0,1.72,1.67Zm0,0q-.25-1.35-.54-2.7l-.12-.57-2.89-3.62-.13-.12-.27-.25a8.85,8.85,0,0,1-.79-.84,7.83,7.83,0,0,1-.58-.74c-.09-.12-.18-.25-.26-.38a.14.14,0,0,1,0-.08c-.09-.13-.17-.26-.25-.4a3.83,3.83,0,0,1-.25-.44h0L114.29,158c-.18.07-.36.14-.54.19l-.08,0a4.05,4.05,0,0,1-.47.12l-.08,0a5.77,5.77,0,0,1-.58.08q-.3,0-.6,0a7.39,7.39,0,0,1-2.25-.36,6.06,6.06,0,0,1-.74-.27h0a11.22,11.22,0,0,1-1.86-1c-.37-.25-.73-.52-1.09-.81a63.87,63.87,0,0,1-5.4-5.39l-7.84,9c1.46,1.9,2.79,3.92,4.24,5.83a4.4,4.4,0,0,0,1.53,1.45c4.29,1.91,6.78,5.64,9.53,9.14,2.42,3.09,4.92,6.13,7.42,9.15.26.31.9.67,1.14.55a1.72,1.72,0,0,0,.84-1.18c.12-1.4.07-2.82.07-4.23,0-2.71,1.89-5.85,4.39-6.62a3.2,3.2,0,0,1,2.81.94c2.53,3.58,4.82,7.34,7.25,11a10.9,10.9,0,0,0,1.72,1.67ZM163.49,99.6a6,6,0,0,1,5.8-2.62,23.82,23.82,0,0,0,4.92.09c1.76-.16,2.93-1,2.75-3.12-.12-1.46,0-2.94,0-4.41,0-2.37-1.21-3.82-3.37-4.83-3.08-1.44-6-3.27-9.05-4.72-3.86-1.82-7.8-3.47-11.75-5.1-2.33-1-4.75-1.68-7.08-2.66-.55-.23-.85-1.06-1.27-1.61H133.79c-3.42.7-6.86,1.32-10.26,2.13A76,76,0,0,0,103,80.48c-.77,1.42-1.19,3.32-2.37,4.16-4.44,3.17-6.11,7.88-7.73,12.67a5.85,5.85,0,0,0,.16,2.17c.69-.23,1.6-.24,2-.7,4.17-4.52,9.36-7.69,14.68-10.51,2.82-1.49,6.17-2.08,9.35-2.75,3.66-.77,7.39-1.16,11.08-1.75,3.13-.5,8.08,3.15,9.27,7a19.85,19.85,0,0,1-2.33,17.33c-1.29,2-2.13,4.33-3.36,6.4a46.69,46.69,0,0,1-3.24,4.48c-.57.74-1.32,1.35-1.86,2.11a7.34,7.34,0,0,1-5.35,2.93l16.85,21.09s0,0,0,0c.07-.25.15-.49.24-.73,0,0,0,0,0-.07a3.62,3.62,0,0,1,.13-.35,7.56,7.56,0,0,1,.3-.71c.93-2,3.06-2.06,4.66-.54,2,1.88,3.69,4.28,6,5.44a12.06,12.06,0,0,0,9,.78,35.31,35.31,0,0,1,6.73-1.13c.55-.06,1.68.65,1.71,1.06a9.13,9.13,0,0,0,.45,2.28,3.24,3.24,0,0,0,.19.52,1.27,1.27,0,0,0,.06.18L176,144h0c0-.21-.09-.43-.14-.64-.63-2.74-4.48-4.78-7.15-3.94-4.65,1.44-9.31,2.83-14,4.11a3,3,0,0,1-2.57-.41,54.41,54.41,0,0,1-6.1-8.23c-1.2-2.21,2.1-5.88,5-6,1.68-.05,3.37,0,5.22,0-.4-4.81-.48-9.2-1.2-13.49-.75-4.52,1.59-7.63,4-10.78C160.39,102.9,162,101.29,163.49,99.6ZM133,184q-.25-1.35-.54-2.7l-.12-.57-2.89-3.62-.13-.12-.27-.25a8.85,8.85,0,0,1-.79-.84,7.83,7.83,0,0,1-.58-.74c-.09-.12-.18-.25-.26-.38a.14.14,0,0,1,0-.08c-.09-.13-.17-.26-.25-.4a3.83,3.83,0,0,1-.25-.44h0L114.29,158c-.18.07-.36.14-.54.19l-.08,0a4.05,4.05,0,0,1-.47.12l-.08,0a5.77,5.77,0,0,1-.58.08q-.3,0-.6,0a7.39,7.39,0,0,1-2.25-.36,6.06,6.06,0,0,1-.74-.27h0a11.22,11.22,0,0,1-1.86-1c-.37-.25-.73-.52-1.09-.81a63.87,63.87,0,0,1-5.4-5.39l-7.84,9c1.46,1.9,2.79,3.92,4.24,5.83a4.4,4.4,0,0,0,1.53,1.45c4.29,1.91,6.78,5.64,9.53,9.14,2.42,3.09,4.92,6.13,7.42,9.15.26.31.9.67,1.14.55a1.72,1.72,0,0,0,.84-1.18c.12-1.4.07-2.82.07-4.23,0-2.71,1.89-5.85,4.39-6.62a3.2,3.2,0,0,1,2.81.94c2.53,3.58,4.82,7.34,7.25,11a10.9,10.9,0,0,0,1.72,1.67Zm0,0q-.25-1.35-.54-2.7l-.12-.57-2.89-3.62-.13-.12-.27-.25a8.85,8.85,0,0,1-.79-.84,7.83,7.83,0,0,1-.58-.74c-.09-.12-.18-.25-.26-.38a.14.14,0,0,1,0-.08c-.09-.13-.17-.26-.25-.4a3.83,3.83,0,0,1-.25-.44h0L114.29,158c-.18.07-.36.14-.54.19l-.08,0a4.05,4.05,0,0,1-.47.12l-.08,0a5.77,5.77,0,0,1-.58.08q-.3,0-.6,0a7.39,7.39,0,0,1-2.25-.36,6.06,6.06,0,0,1-.74-.27h0a11.22,11.22,0,0,1-1.86-1c-.37-.25-.73-.52-1.09-.81a63.87,63.87,0,0,1-5.4-5.39l-7.84,9c1.46,1.9,2.79,3.92,4.24,5.83a4.4,4.4,0,0,0,1.53,1.45c4.29,1.91,6.78,5.64,9.53,9.14,2.42,3.09,4.92,6.13,7.42,9.15.26.31.9.67,1.14.55a1.72,1.72,0,0,0,.84-1.18c.12-1.4.07-2.82.07-4.23,0-2.71,1.89-5.85,4.39-6.62a3.2,3.2,0,0,1,2.81.94c2.53,3.58,4.82,7.34,7.25,11a10.9,10.9,0,0,0,1.72,1.67Z" transform="translate(-35.74 -63.26)"/><polygon class="cls-12" points="16.19 134.8 69.14 74.13 121.1 139.35 201.74 40.28 202.24 59.19 219.06 59.29 218.27 3.27 165.12 17.92 169.48 34.25 188.68 29.1 121.89 112.43 69.93 47.41 3.52 123.72 16.19 134.8"/></svg>