<svg id="Layer_1" data-name="Layer 1" xmlns="http://www.w3.org/2000/svg" viewBox="0 0 267.28 257.77"><defs><style>.cls-1{fill:#ef4334;}.cls-2{fill:#dd6b6b;stroke:#231f20;stroke-miterlimit:10;stroke-width:5px;}.cls-3{fill:#231f20;}</style></defs><path class="cls-1" d="M96.24,160.05,158,82.58l90,110.59.32-12,26.53-.16A124.41,124.41,0,0,0,42.05,98Z" transform="translate(-15.19 -24.18)"/><path class="cls-1" d="M202.83,240.21l8.25-30.9,10.85,2.91-63-78.58-61.37,76.8L30.71,133.6a126.07,126.07,0,0,0-1.52,19.46,124.38,124.38,0,0,0,204.05,95.53Z" transform="translate(-15.19 -24.18)"/><polygon class="cls-2" points="18.53 73.36 81.26 145.24 142.82 67.97 238.35 185.34 238.95 162.94 258.87 162.82 257.94 229.19 194.97 211.83 200.14 192.49 222.88 198.59 143.76 99.86 82.2 176.9 3.52 86.49 18.53 73.36"/><path class="cls-3" d="M45.29,101.67A119.88,119.88,0,0,1,270.17,181l9.25-.05a129,129,0,0,0,3.05-27.91c0-71.06-57.82-128.88-128.89-128.88A129,129,0,0,0,38.88,94.32Z" transform="translate(-15.19 -24.18)"/><path class="cls-3" d="M227.85,247.11a119.85,119.85,0,0,1-193.22-109l-7.72-8.86A128.83,128.83,0,0,0,238.41,250Z" transform="translate(-15.19 -24.18)"/></svg>