<svg id="Layer_1" data-name="Layer 1" xmlns="http://www.w3.org/2000/svg" viewBox="0 0 235.24 235.15"><defs><style>.cls-1{stroke:#231f20;stroke-miterlimit:10;stroke-width:2px;}</style></defs><path class="cls-1" d="M160.05,228.87c-1.49,1.59-3,3.19-4.48,4.76-1.32,1.38-2.68,2.73-4,4.07a5.49,5.49,0,0,1-8.3,0c-1.46-1.47-2.95-2.91-4.37-4.41-.58-.61-1-.57-1.69-.13q-11.8,7.74-23.64,15.44c-2.9,1.89-5.43,1.64-7.91-.83L68,210.16l-3.73-3.72c-2.49-2.49-2.73-5.08-.81-8,5.13-7.84,10.23-15.71,15.38-23.54a1.19,1.19,0,0,0-.22-1.86c-1.51-1.41-3-2.9-4.4-4.38a5.44,5.44,0,0,1,0-8.11c2.91-2.94,5.84-5.87,8.89-8.94-1.72-.11-3.32-.22-4.92-.29l-20.71-.91c-3.78-.17-7.57-.38-11.35-.47a5.17,5.17,0,0,1-5.1-3.41,5.29,5.29,0,0,1,1.43-6.1Q48.73,134.15,55,127.9c8.32-8.32,16.65-16.61,24.93-25a7.76,7.76,0,0,1,4.64-2.19c6.74-1,13.48-2.09,20.22-3.14l23.45-3.66c4.62-.72,9.25-1.41,13.86-2.19a3.88,3.88,0,0,0,1.9-1c5.36-5.3,10.65-10.68,16-16a117.66,117.66,0,0,1,59.64-30.7,99.56,99.56,0,0,1,24.26-1.3,101.33,101.33,0,0,1,17.29,2.8,6.59,6.59,0,0,1,5.23,5.29,94.54,94.54,0,0,1,2.9,29.24,106.43,106.43,0,0,1-9.56,38.38,114.29,114.29,0,0,1-17.49,27.9c-3.34,3.87-7,7.44-10.6,11.1s-7.27,7.2-10.77,10.92c-.64.67-.74,1.93-.9,2.94-1.93,12.24-3.81,24.49-5.72,36.74-1.07,6.81-2.11,13.63-3.3,20.42a6.7,6.7,0,0,1-1.77,3.31q-17.82,18-35.77,35.83c-.75.75-1.46,1.54-2.25,2.23a5.18,5.18,0,0,1-5.76,1,5,5,0,0,1-3.34-4.78q-.57-13.93-1.18-27.85c-.13-3-.32-6.07-.48-9.11Zm11.82-26.81c.45-.39.78-.66,1.08-1,6.65-6.86,13.87-13.16,20.21-20.34,3.58-4.07,7.63-7.72,11.47-11.56,8.36-8.37,16.79-16.68,25.08-25.13a101.85,101.85,0,0,0,18.56-26.74,96.89,96.89,0,0,0,10.38-40.61,80.89,80.89,0,0,0-2.06-20.21,1.33,1.33,0,0,0-1.28-1.13c-3.66-.55-7.31-1.24-11-1.65a78.37,78.37,0,0,0-21.57.82A99.45,99.45,0,0,0,198,62.16a105.8,105.8,0,0,0-27.82,18c-4.47,4.07-8.64,8.48-12.92,12.76q-13.8,13.78-27.59,27.6-9.81,9.81-19.64,19.63c-.59.59-.81,1-.07,1.68q9.11,8.78,18.16,17.62L163.64,194ZM85.94,164.49l61.67,61.68,17.24-17.46L102.43,148ZM130,224.8,87.19,182c-4.16,6.38-8.37,12.84-12.71,19.48a9,9,0,0,1,1,.78l16.25,16.24q9.1,9.12,18.21,18.24a1,1,0,0,0,1.59.13c4.49-3,9-5.9,13.54-8.84Zm42.37,28.35a1.69,1.69,0,0,0,.3-.16q13.68-13.67,27.34-27.36a2.59,2.59,0,0,0,.68-1.31q1.35-8.37,2.64-16.74,1.37-8.79,2.72-17.56c.4-2.59.79-5.18,1.22-8-.35.28-.51.38-.65.51q-17.1,17.11-34.24,34.2a4.77,4.77,0,0,0-1.49,4c.37,7,.64,14,.95,20.94C172.05,245.48,172.23,249.26,172.41,253.15ZM130,105l-.28-.31c-4.54.7-9.09,1.38-13.63,2.09q-13.33,2.07-26.68,4.17a5.74,5.74,0,0,0-3.57,1.45C79,119.34,72.15,126.17,65.29,133c-2.15,2.14-4.31,4.26-6.64,6.56,2.21.11,4.14.23,6.08.31,2.92.12,5.85.18,8.78.31q9.54.42,19.07.88a2.36,2.36,0,0,0,2-.78q14.56-14.61,29.16-29.17C125.76,109.07,127.88,107.07,130,105Z" transform="translate(-35.24 -41.56)"/><path class="cls-1" d="M82.55,233.91a5.33,5.33,0,0,1-1.9,4.38c-9.76,8.53-19.42,17.16-29.8,24.94a47.54,47.54,0,0,1-4.42,2.85,3.79,3.79,0,0,1-1.42.21c0-.52-.08-1.14.16-1.53a46.88,46.88,0,0,1,3.61-5.46c7.12-8.6,14.32-17.12,21.5-25.66,1-1.14,2-2.25,3-3.31A5.42,5.42,0,0,1,79.19,229,5.18,5.18,0,0,1,82.55,233.91Z" transform="translate(-35.24 -41.56)"/><path class="cls-1" d="M60.39,211.91a5.37,5.37,0,0,1,5.09,3.47,5.24,5.24,0,0,1-1.56,6.14c-4.07,3.41-8.12,6.84-12.31,10.1-3.84,3-7.83,5.8-11.79,8.65a10.45,10.45,0,0,1-2.29,1.15,1.27,1.27,0,0,1-1.07-.06,1.18,1.18,0,0,1-.16-1.06,10.6,10.6,0,0,1,1.24-2.5c4.1-5.5,8.21-11,12.41-16.43,2-2.59,4.21-5,6.34-7.52A5.47,5.47,0,0,1,60.39,211.91Z" transform="translate(-35.24 -41.56)"/><path class="cls-1" d="M94.42,246.12a5.56,5.56,0,0,1,5.27,3.44,5.2,5.2,0,0,1-1.27,5.91c-7.91,6.55-15.77,13.18-24.34,18.87a11.48,11.48,0,0,1-1.94,1.07,6.27,6.27,0,0,1-1.52.19,5.35,5.35,0,0,1,.1-1.56A7.94,7.94,0,0,1,71.8,272c3.82-5.14,7.62-10.29,11.53-15.35,2.22-2.87,4.65-5.58,7-8.37A5.63,5.63,0,0,1,94.42,246.12Z" transform="translate(-35.24 -41.56)"/><path class="cls-1" d="M240.34,96.78A25,25,0,1,1,216,71.66,25,25,0,0,1,240.34,96.78Zm-10.91-.08a14.11,14.11,0,0,0-14-14.15,14.14,14.14,0,1,0-.24,28.28A14,14,0,0,0,229.43,96.7Z" transform="translate(-35.24 -41.56)"/></svg>